<?xml version="1.0" encoding="UTF-8"?>
<!DOCTYPE svg PUBLIC "-//W3C//DTD SVG 1.1//EN" "http://www.w3.org/Graphics/SVG/1.1/DTD/svg11.dtd">
<svg xmlns="http://www.w3.org/2000/svg" version="1.1" width="1024px" height="1024px" style="shape-rendering:geometricPrecision; text-rendering:geometricPrecision; image-rendering:optimizeQuality; fill-rule:evenodd; clip-rule:evenodd" xmlns:xlink="http://www.w3.org/1999/xlink">
<g><path style="opacity:1" fill="#228e13" d="M -0.5,-0.5 C 340.833,-0.5 682.167,-0.5 1023.5,-0.5C 1023.5,340.833 1023.5,682.167 1023.5,1023.5C 682.167,1023.5 340.833,1023.5 -0.5,1023.5C -0.5,682.167 -0.5,340.833 -0.5,-0.5 Z"/></g>
<g><path style="opacity:1" fill="#dad8d8" d="M 635.5,41.5 C 636.5,41.5 637.5,41.5 638.5,41.5C 671.834,185.509 705.168,329.509 738.5,473.5C 734.568,472.492 730.568,472.658 726.5,474C 720.749,476.192 715.416,479.192 710.5,483C 705.331,484.056 700.498,483.223 696,480.5C 692.058,481.128 688.225,482.128 684.5,483.5C 683.904,487.191 681.738,488.858 678,488.5C 669.12,485.293 661.62,487.293 655.5,494.5C 652.097,495.651 648.597,496.317 645,496.5C 641.195,495.501 637.362,495.001 633.5,495C 628.915,501.988 623.249,503.488 616.5,499.5C 613.86,500.095 611.193,500.428 608.5,500.5C 608.5,502.167 608.5,503.833 608.5,505.5C 602.48,505.239 596.48,505.072 590.5,505C 587.156,506.674 584.156,508.84 581.5,511.5C 579.955,512.452 578.288,512.785 576.5,512.5C 576.657,511.127 576.49,509.793 576,508.5C 572.455,509.233 568.955,510.233 565.5,511.5C 564.571,512.689 564.238,514.022 564.5,515.5C 560.889,515.956 557.556,515.289 554.5,513.5C 550.875,514.13 547.375,515.13 544,516.5C 543.51,517.793 543.343,519.127 543.5,520.5C 539.256,519.188 534.922,518.688 530.5,519C 523.596,521.079 516.596,522.746 509.5,524C 517.122,524.987 524.622,524.487 532,522.5C 534.723,523.61 537.556,524.276 540.5,524.5C 545.498,522.031 550.831,520.698 556.5,520.5C 556.5,521.5 556.5,522.5 556.5,523.5C 559.833,523.833 563.167,524.167 566.5,524.5C 566.5,523.167 566.5,521.833 566.5,520.5C 573.701,520.171 580.534,521.505 587,524.5C 588.596,523.503 590.096,522.337 591.5,521C 594.5,520.333 597.5,520.333 600.5,521C 602.043,523.702 604.376,524.868 607.5,524.5C 607.281,523.325 607.614,522.325 608.5,521.5C 612.745,519.558 617.079,519.225 621.5,520.5C 622.429,521.689 622.762,523.022 622.5,524.5C 625.85,524.665 629.183,524.498 632.5,524C 635.121,522.033 637.954,520.533 641,519.5C 643,520.833 645,522.167 647,523.5C 652.172,524.706 657.338,524.706 662.5,523.5C 662.968,521.866 663.968,520.7 665.5,520C 669.871,519.172 674.205,519.339 678.5,520.5C 679.799,522.142 681.299,523.476 683,524.5C 686.318,521.177 690.318,519.844 695,520.5C 699.473,519.95 703.306,521.117 706.5,524C 709.833,524.667 713.167,524.667 716.5,524C 717.67,522.245 719.337,521.245 721.5,521C 726.528,520.412 731.528,520.578 736.5,521.5C 738.49,668.062 739.157,814.729 738.5,961.5C 601.833,961.5 465.167,961.5 328.5,961.5C 328.667,816.166 328.5,670.833 328,525.5C 298.667,400.167 269.333,274.833 240,149.5C 238.992,144.824 238.325,140.157 238,135.5C 370.516,103.819 503.016,72.4858 635.5,41.5 Z"/></g>
<g><path style="opacity:1" fill="#278f19" d="M 456.5,133.5 C 459.244,134.491 461.911,134.157 464.5,132.5C 474.484,131.537 484.484,131.37 494.5,132C 496.379,137.351 497.713,142.851 498.5,148.5C 498.5,149.5 498.5,150.5 498.5,151.5C 497.167,151.5 495.833,151.5 494.5,151.5C 483.456,147.585 472.123,146.585 460.5,148.5C 463.502,161.839 466.502,175.173 469.5,188.5C 481.895,187.345 493.895,188.845 505.5,193C 515.469,199.601 520.469,208.934 520.5,221C 519.528,231.945 514.861,240.945 506.5,248C 499.9,252.134 493.233,255.967 486.5,259.5C 490.236,270.586 492.903,281.92 494.5,293.5C 490.538,294.376 486.538,295.042 482.5,295.5C 481.242,285.47 478.908,275.803 475.5,266.5C 475.5,265.167 475.5,263.833 475.5,262.5C 471.183,262.083 467.183,262.75 463.5,264.5C 457.505,264.833 451.505,265.166 445.5,265.5C 440.384,265.606 435.384,264.939 430.5,263.5C 429.146,257.416 427.479,251.416 425.5,245.5C 426.167,245.167 426.833,244.833 427.5,244.5C 441.499,248.468 455.666,249.468 470,247.5C 470.667,245.167 470.667,242.833 470,240.5C 467.019,229.578 464.519,218.578 462.5,207.5C 454.493,207.666 446.493,207.5 438.5,207C 416.844,202.231 407.677,188.731 411,166.5C 414.619,157.882 420.119,150.716 427.5,145C 432.39,141.926 437.557,139.426 443,137.5C 443.667,135.167 443.667,132.833 443,130.5C 441.18,123.889 439.68,117.222 438.5,110.5C 442.557,110.152 446.557,109.486 450.5,108.5C 452.19,117.025 454.19,125.358 456.5,133.5 Z"/></g>
<g><path style="opacity:1" fill="#74af69" d="M 464.5,132.5 C 461.911,134.157 459.244,134.491 456.5,133.5C 459.096,132.735 461.763,132.401 464.5,132.5 Z"/></g>
<g><path style="opacity:1" fill="#8ab781" d="M 498.5,148.5 C 499.434,149.568 499.768,150.901 499.5,152.5C 497.585,152.784 495.919,152.451 494.5,151.5C 495.833,151.5 497.167,151.5 498.5,151.5C 498.5,150.5 498.5,149.5 498.5,148.5 Z"/></g>
<g><path style="opacity:1" fill="#d5d6d3" d="M 456.5,187.5 C 454.365,189.369 451.698,190.036 448.5,189.5C 435.353,189.738 428.687,183.238 428.5,170C 431.159,160.819 437.159,154.986 446.5,152.5C 447.647,152.818 448.481,153.484 449,154.5C 451.66,165.472 454.16,176.472 456.5,187.5 Z"/></g>
<g><path style="opacity:1" fill="#77b06e" d="M 456.5,187.5 C 457.404,188.209 457.737,189.209 457.5,190.5C 454.287,190.81 451.287,190.477 448.5,189.5C 451.698,190.036 454.365,189.369 456.5,187.5 Z"/></g>
<g><path style="opacity:1" fill="#97bd90" d="M 483.5,206.5 C 480.287,206.19 477.287,206.523 474.5,207.5C 473.957,207.44 473.624,207.107 473.5,206.5C 476.98,205.194 480.313,205.194 483.5,206.5 Z"/></g>
<g><path style="opacity:1" fill="#d8d7d6" d="M 483.5,206.5 C 494.475,206.644 500.475,212.144 501.5,223C 500.23,234.44 493.896,241.273 482.5,243.5C 480.048,231.458 477.382,219.458 474.5,207.5C 477.287,206.523 480.287,206.19 483.5,206.5 Z"/></g>
<g><path style="opacity:1" fill="#99be91" d="M 475.5,266.5 C 474.596,265.791 474.263,264.791 474.5,263.5C 470.802,263.552 467.135,263.886 463.5,264.5C 467.183,262.75 471.183,262.083 475.5,262.5C 475.5,263.833 475.5,265.167 475.5,266.5 Z"/></g>
<g><path style="opacity:1" fill="#228e13" d="M 652.5,273.5 C 653.586,273.62 654.253,274.287 654.5,275.5C 655.836,280.844 657.169,286.177 658.5,291.5C 639.939,296.474 621.272,301.14 602.5,305.5C 600.522,299.589 598.856,293.589 597.5,287.5C 598,287.167 598.5,286.833 599,286.5C 617.012,282.371 634.845,278.038 652.5,273.5 Z"/></g>
<g><path style="opacity:1" fill="#228e13" d="M 546.5,300.5 C 547.833,300.5 549.167,300.5 550.5,300.5C 551.39,306.455 552.724,312.288 554.5,318C 484.775,335.764 414.775,352.597 344.5,368.5C 343.61,362.545 342.276,356.712 340.5,351C 340.833,350.667 341.167,350.333 341.5,350C 409.996,333.625 478.329,317.125 546.5,300.5 Z"/></g>
<g><path style="opacity:1" fill="#228e13" d="M 670.5,344.5 C 671.586,344.62 672.253,345.287 672.5,346.5C 673.836,351.844 675.169,357.177 676.5,362.5C 657.939,367.474 639.272,372.14 620.5,376.5C 618.522,370.589 616.856,364.589 615.5,358.5C 616,358.167 616.5,357.833 617,357.5C 635.012,353.371 652.845,349.038 670.5,344.5 Z"/></g>
<g><path style="opacity:1" fill="#228e13" d="M 479.5,390.5 C 480.586,390.62 481.253,391.287 481.5,392.5C 482.755,397.688 484.089,402.855 485.5,408C 485.095,408.945 484.428,409.612 483.5,410C 444.083,419.188 404.749,428.688 365.5,438.5C 363.603,432.745 361.936,426.912 360.5,421C 360.905,420.055 361.572,419.388 362.5,419C 401.737,409.94 440.737,400.44 479.5,390.5 Z"/></g>
<g><path style="opacity:1" fill="#228e13" d="M 693.5,416.5 C 694.586,416.62 695.253,417.287 695.5,418.5C 696.836,423.844 698.169,429.177 699.5,434.5C 680.939,439.474 662.272,444.14 643.5,448.5C 641.522,442.589 639.856,436.589 638.5,430.5C 639,430.167 639.5,429.833 640,429.5C 658.012,425.371 675.845,421.038 693.5,416.5 Z"/></g>
<g><path style="opacity:1" fill="#228e13" d="M 586.5,444.5 C 587.833,444.5 589.167,444.5 590.5,444.5C 591.39,450.455 592.724,456.288 594.5,462C 524.775,479.764 454.775,496.597 384.5,512.5C 383.61,506.545 382.276,500.712 380.5,495C 380.833,494.667 381.167,494.333 381.5,494C 449.996,477.625 518.329,461.125 586.5,444.5 Z"/></g>
<g><path style="opacity:1" fill="#228e12" d="M 668.5,577.5 C 681.5,577.5 694.5,577.5 707.5,577.5C 707.5,583.833 707.5,590.167 707.5,596.5C 687.84,597.158 668.174,597.491 648.5,597.5C 648.5,591.167 648.5,584.833 648.5,578.5C 655.354,578.824 662.021,578.491 668.5,577.5 Z"/></g>
<g><path style="opacity:1" fill="#228e13" d="M 379.5,578.5 C 433.169,578.573 486.835,578.907 540.5,579.5C 540.5,585.833 540.5,592.167 540.5,598.5C 486.831,598.478 433.164,598.144 379.5,597.5C 379.5,591.167 379.5,584.833 379.5,578.5 Z"/></g>
<g><path style="opacity:1" fill="#228e12" d="M 667.5,651.5 C 680.5,651.5 693.5,651.5 706.5,651.5C 706.5,657.833 706.5,664.167 706.5,670.5C 686.84,671.158 667.174,671.491 647.5,671.5C 647.5,665.167 647.5,658.833 647.5,652.5C 654.354,652.824 661.021,652.491 667.5,651.5 Z"/></g>
<g><path style="opacity:1" fill="#228e12" d="M 379.5,652.5 C 452.501,652.623 525.501,652.956 598.5,653.5C 598.5,659.833 598.5,666.167 598.5,672.5C 525.499,672.377 452.499,672.044 379.5,671.5C 379.5,665.167 379.5,658.833 379.5,652.5 Z"/></g>
<g><path style="opacity:1" fill="#228e12" d="M 668.5,721.5 C 681.5,721.5 694.5,721.5 707.5,721.5C 707.5,727.833 707.5,734.167 707.5,740.5C 687.84,741.158 668.174,741.491 648.5,741.5C 648.5,735.167 648.5,728.833 648.5,722.5C 655.354,722.824 662.021,722.491 668.5,721.5 Z"/></g>
<g><path style="opacity:1" fill="#228e13" d="M 378.5,725.5 C 432.169,725.573 485.835,725.907 539.5,726.5C 539.5,732.833 539.5,739.167 539.5,745.5C 485.831,745.478 432.164,745.144 378.5,744.5C 378.5,738.167 378.5,731.833 378.5,725.5 Z"/></g>
<g><path style="opacity:1" fill="#228e12" d="M 379.5,793.5 C 425.169,793.526 470.836,793.86 516.5,794.5C 516.5,800.833 516.5,807.167 516.5,813.5C 470.831,813.474 425.164,813.14 379.5,812.5C 379.5,806.167 379.5,799.833 379.5,793.5 Z"/></g>
<g><path style="opacity:1" fill="#228e12" d="M 670.5,794.5 C 683.5,794.5 696.5,794.5 709.5,794.5C 709.5,800.833 709.5,807.167 709.5,813.5C 689.84,814.158 670.174,814.491 650.5,814.5C 650.5,808.167 650.5,801.833 650.5,795.5C 657.354,795.824 664.021,795.491 670.5,794.5 Z"/></g>
<g><path style="opacity:1" fill="#228e13" d="M 378.5,861.5 C 447.835,861.618 517.168,861.952 586.5,862.5C 586.5,868.833 586.5,875.167 586.5,881.5C 517.165,881.408 447.832,881.075 378.5,880.5C 378.5,874.167 378.5,867.833 378.5,861.5 Z"/></g>
<g><path style="opacity:1" fill="#228e12" d="M 669.5,863.5 C 682.5,863.5 695.5,863.5 708.5,863.5C 708.5,869.833 708.5,876.167 708.5,882.5C 688.84,883.158 669.174,883.491 649.5,883.5C 649.5,877.167 649.5,870.833 649.5,864.5C 656.354,864.824 663.021,864.491 669.5,863.5 Z"/></g>
</svg>
